TITLE ""
FILE "P1Q_j_1642-1655.mp3" MP3
  TRACK 01 AUDIO
    TITLE "P1Q_j_1642-1655_01"
    INDEX 01 00:00:00
  TRACK 02 AUDIO
    TITLE "P1Q_j_1642-1655_02"
    INDEX 01 00:01:39
  TRACK 03 AUDIO
    TITLE "P1Q_j_1642-1655_03"
    INDEX 01 00:01:59
  TRACK 04 AUDIO
    TITLE "P1Q_j_1642-1655_04"
    INDEX 01 00:05:60
  TRACK 05 AUDIO
    TITLE "P1Q_j_1642-1655_05"
    INDEX 01 00:06:05
  TRACK 06 AUDIO
    TITLE "P1Q_j_1642-1655_06"
    INDEX 01 00:11:45
  TRACK 07 AUDIO
    TITLE "P1Q_j_1642-1655_07"
    INDEX 01 00:12:17
  TRACK 08 AUDIO
    TITLE "P1Q_j_1642-1655_08"
    INDEX 01 00:13:58
  TRACK 09 AUDIO
    TITLE "P1Q_j_1642-1655_09"
    INDEX 01 00:14:07
  TRACK 10 AUDIO
    TITLE "P1Q_j_1642-1655_10"
    INDEX 01 00:20:25
  TRACK 11 AUDIO
    TITLE "P1Q_j_1642-1655_11"
    INDEX 01 00:20:44
  TRACK 12 AUDIO
    TITLE "P1Q_j_1642-1655_12"
    INDEX 01 00:24:48
  TRACK 13 AUDIO
    TITLE "P1Q_j_1642-1655_13"
    INDEX 01 00:25:18
  TRACK 14 AUDIO
    TITLE "P1Q_j_1642-1655_14"
    INDEX 01 00:26:45
  TRACK 15 AUDIO
    TITLE "P1Q_j_1642-1655_15"
    INDEX 01 00:26:66
  TRACK 16 AUDIO
    TITLE "P1Q_j_1642-1655_16"
    INDEX 01 00:29:35
  TRACK 17 AUDIO
    TITLE "P1Q_j_1642-1655_17"
    INDEX 01 00:29:55
  TRACK 18 AUDIO
    TITLE "P1Q_j_1642-1655_18"
    INDEX 01 00:34:60
  TRACK 19 AUDIO
    TITLE "P1Q_j_1642-1655_19"
    INDEX 01 00:35:28
  TRACK 20 AUDIO
    TITLE "P1Q_j_1642-1655_20"
    INDEX 01 00:36:49
  TRACK 21 AUDIO
    TITLE "P1Q_j_1642-1655_21"
    INDEX 01 00:36:69
  TRACK 22 AUDIO
    TITLE "P1Q_j_1642-1655_22"
    INDEX 01 00:39:53
  TRACK 23 AUDIO
    TITLE "P1Q_j_1642-1655_23"
    INDEX 01 00:40:00
  TRACK 24 AUDIO
    TITLE "P1Q_j_1642-1655_24"
    INDEX 01 00:44:31
  TRACK 25 AUDIO
    TITLE "P1Q_j_1642-1655_25"
    INDEX 01 00:45:01
  TRACK 26 AUDIO
    TITLE "P1Q_j_1642-1655_26"
    INDEX 01 00:46:30
  TRACK 27 AUDIO
    TITLE "P1Q_j_1642-1655_27"
    INDEX 01 00:46:48
  TRACK 28 AUDIO
    TITLE "P1Q_j_1642-1655_28"
    INDEX 01 00:51:06
  TRACK 29 AUDIO
    TITLE "P1Q_j_1642-1655_29"
    INDEX 01 00:51:27
  TRACK 30 AUDIO
    TITLE "P1Q_j_1642-1655_30"
    INDEX 01 00:55:41
  TRACK 31 AUDIO
    TITLE "P1Q_j_1642-1655_31"
    INDEX 01 00:56:11
  TRACK 32 AUDIO
    TITLE "P1Q_j_1642-1655_32"
    INDEX 01 00:57:36
  TRACK 33 AUDIO
    TITLE "P1Q_j_1642-1655_33"
    INDEX 01 00:57:55
  TRACK 34 AUDIO
    TITLE "P1Q_j_1642-1655_34"
    INDEX 01 01:03:09
  TRACK 35 AUDIO
    TITLE "P1Q_j_1642-1655_35"
    INDEX 01 01:03:28
  TRACK 36 AUDIO
    TITLE "P1Q_j_1642-1655_36"
    INDEX 01 01:07:54
  TRACK 37 AUDIO
    TITLE "P1Q_j_1642-1655_37"
    INDEX 01 01:08:24
  TRACK 38 AUDIO
    TITLE "P1Q_j_1642-1655_38"
    INDEX 01 01:09:41
  TRACK 39 AUDIO
    TITLE "P1Q_j_1642-1655_39"
    INDEX 01 01:09:66
  TRACK 40 AUDIO
    TITLE "P1Q_j_1642-1655_40"
    INDEX 01 01:16:68
  TRACK 41 AUDIO
    TITLE "P1Q_j_1642-1655_41"
    INDEX 01 01:17:13
  TRACK 42 AUDIO
    TITLE "P1Q_j_1642-1655_42"
    INDEX 01 01:21:40
  TRACK 43 AUDIO
    TITLE "P1Q_j_1642-1655_43"
    INDEX 01 01:22:10
  TRACK 44 AUDIO
    TITLE "P1Q_j_1642-1655_44"
    INDEX 01 01:23:57
  TRACK 45 AUDIO
    TITLE "P1Q_j_1642-1655_45"
    INDEX 01 01:24:01
  TRACK 46 AUDIO
    TITLE "P1Q_j_1642-1655_46"
    INDEX 01 01:28:17
  TRACK 47 AUDIO
    TITLE "P1Q_j_1642-1655_47"
    INDEX 01 01:28:36
  TRACK 48 AUDIO
    TITLE "P1Q_j_1642-1655_48"
    INDEX 01 01:32:20
  TRACK 49 AUDIO
    TITLE "P1Q_j_1642-1655_49"
    INDEX 01 01:32:65
  TRACK 50 AUDIO
    TITLE "P1Q_j_1642-1655_50"
    INDEX 01 01:34:25
  TRACK 51 AUDIO
    TITLE "P1Q_j_1642-1655_51"
    INDEX 01 01:34:45
  TRACK 52 AUDIO
    TITLE "P1Q_j_1642-1655_52"
    INDEX 01 01:38:64
  TRACK 53 AUDIO
    TITLE "P1Q_j_1642-1655_53"
    INDEX 01 01:39:09
  TRACK 54 AUDIO
    TITLE "P1Q_j_1642-1655_54"
    INDEX 01 01:44:25
  TRACK 55 AUDIO
    TITLE "P1Q_j_1642-1655_55"
    INDEX 01 01:44:71
  TRACK 56 AUDIO
    TITLE "P1Q_j_1642-1655_56"
    INDEX 01 01:46:36
  TRACK 57 AUDIO
    TITLE "P1Q_j_1642-1655_57"
    INDEX 01 01:46:58
  TRACK 58 AUDIO
    TITLE "P1Q_j_1642-1655_58"
    INDEX 01 01:52:35
  TRACK 59 AUDIO
    TITLE "P1Q_j_1642-1655_59"
    INDEX 01 01:52:54
  TRACK 60 AUDIO
    TITLE "P1Q_j_1642-1655_60"
    INDEX 01 01:56:72
  TRACK 61 AUDIO
    TITLE "P1Q_j_1642-1655_61"
    INDEX 01 01:57:46
  TRACK 62 AUDIO
    TITLE "P1Q_j_1642-1655_62"
    INDEX 01 01:59:23
  TRACK 63 AUDIO
    TITLE "P1Q_j_1642-1655_63"
    INDEX 01 01:59:43
  TRACK 64 AUDIO
    TITLE "P1Q_j_1642-1655_64"
    INDEX 01 02:02:37
  TRACK 65 AUDIO
    TITLE "P1Q_j_1642-1655_65"
    INDEX 01 02:02:59
  TRACK 66 AUDIO
    TITLE "P1Q_j_1642-1655_66"
    INDEX 01 02:07:42
  TRACK 67 AUDIO
    TITLE "P1Q_j_1642-1655_67"
    INDEX 01 02:08:12
  TRACK 68 AUDIO
    TITLE "P1Q_j_1642-1655_68"
    INDEX 01 02:09:61
  TRACK 69 AUDIO
    TITLE "P1Q_j_1642-1655_69"
    INDEX 01 02:10:09
  TRACK 70 AUDIO
    TITLE "P1Q_j_1642-1655_70"
    INDEX 01 02:12:00
  TRACK 71 AUDIO
    TITLE "P1Q_j_1642-1655_71"
    INDEX 01 02:12:20
  TRACK 72 AUDIO
    TITLE "P1Q_j_1642-1655_72"
    INDEX 01 02:16:06
  TRACK 73 AUDIO
    TITLE "P1Q_j_1642-1655_73"
    INDEX 01 02:16:51
  TRACK 74 AUDIO
    TITLE "P1Q_j_1642-1655_74"
    INDEX 01 02:18:15
  TRACK 75 AUDIO
    TITLE "P1Q_j_1642-1655_75"
    INDEX 01 02:18:34
  TRACK 76 AUDIO
    TITLE "P1Q_j_1642-1655_76"
    INDEX 01 02:20:41
  TRACK 77 AUDIO
    TITLE "P1Q_j_1642-1655_77"
    INDEX 01 02:20:61
  TRACK 78 AUDIO
    TITLE "P1Q_j_1642-1655_78"
    INDEX 01 02:25:03
  TRACK 79 AUDIO
    TITLE "P1Q_j_1642-1655_79"
    INDEX 01 02:25:48
  TRACK 80 AUDIO
    TITLE "P1Q_j_1642-1655_80"
    INDEX 01 02:26:71
  TRACK 81 AUDIO
    TITLE "P1Q_j_1642-1655_81"
    INDEX 01 02:27:17
  TRACK 82 AUDIO
    TITLE "P1Q_j_1642-1655_82"
    INDEX 01 02:30:45
  TRACK 83 AUDIO
    TITLE "P1Q_j_1642-1655_83"
    INDEX 01 02:30:63
  TRACK 84 AUDIO
    TITLE "P1Q_j_1642-1655_84"
    INDEX 01 02:34:29
